<?xml version="1.0" encoding="UTF-8" standalone="no"?>
<svg
   xmlns:dc="http://purl.org/dc/elements/1.1/"
   xmlns:cc="http://creativecommons.org/ns#"
   xmlns:rdf="http://www.w3.org/1999/02/22-rdf-syntax-ns#"
   xmlns:svg="http://www.w3.org/2000/svg"
   xmlns="http://www.w3.org/2000/svg"
   xmlns:sodipodi="http://sodipodi.sourceforge.net/DTD/sodipodi-0.dtd"
   xmlns:inkscape="http://www.inkscape.org/namespaces/inkscape"
   aria-hidden="true"
   focusable="false"
   data-prefix="fas"
   data-icon="hand-holding-usd"
   class="svg-inline--fa fa-hand-holding-usd fa-w-17"
   role="img"
   viewBox="0 0 1905.2682 952.63409"
   version="1.1"
   id="svg6"
   sodipodi:docname="car.svg"
   width="1905.2682"
   height="952.63409"
   inkscape:version="0.92.3 (2405546, 2018-03-11)"
   enable-background="new">
  <metadata
     id="metadata12">
    <rdf:RDF>
      <cc:Work
         rdf:about="">
        <dc:format>image/svg+xml</dc:format>
        <dc:type
           rdf:resource="http://purl.org/dc/dcmitype/StillImage" />
        <dc:title></dc:title>
      </cc:Work>
    </rdf:RDF>
  </metadata>
  <defs
     id="defs10">
    <filter
       inkscape:label="Apparition"
       inkscape:menu="Blurs"
       inkscape:menu-tooltip="Edges are partly feathered out"
       style="color-interpolation-filters:sRGB"
       id="filter2973">
      <feMorphology
         radius="4"
         in="SourceGraphic"
         result="result0"
         id="feMorphology2967" />
      <feGaussianBlur
         in="result0"
         stdDeviation="8"
         result="result91"
         id="feGaussianBlur2969" />
      <feComposite
         operator="in"
         in="SourceGraphic"
         in2="result91"
         id="feComposite2971"
         result="fbSourceGraphic" />
      <feColorMatrix
         result="fbSourceGraphicAlpha"
         in="fbSourceGraphic"
         values="0 0 0 -1 0 0 0 0 -1 0 0 0 0 -1 0 0 0 0 1 0"
         id="feColorMatrix2975" />
      <feMorphology
         id="feMorphology2977"
         radius="4"
         in="fbSourceGraphic"
         result="result0" />
      <feGaussianBlur
         id="feGaussianBlur2979"
         in="result0"
         stdDeviation="8"
         result="result91" />
      <feComposite
         in2="result91"
         id="feComposite2981"
         operator="in"
         in="fbSourceGraphic" />
    </filter>
    <filter
       inkscape:label="Apparition"
       inkscape:menu="Blurs"
       inkscape:menu-tooltip="Edges are partly feathered out"
       style="color-interpolation-filters:sRGB"
       id="filter2973-3">
      <feMorphology
         radius="4"
         in="SourceGraphic"
         result="result0"
         id="feMorphology2967-6" />
      <feGaussianBlur
         in="result0"
         stdDeviation="8"
         result="result91"
         id="feGaussianBlur2969-7" />
      <feComposite
         operator="in"
         in="SourceGraphic"
         in2="result91"
         id="feComposite2971-5"
         result="fbSourceGraphic" />
      <feColorMatrix
         result="fbSourceGraphicAlpha"
         in="fbSourceGraphic"
         values="0 0 0 -1 0 0 0 0 -1 0 0 0 0 -1 0 0 0 0 1 0"
         id="feColorMatrix2975-3" />
      <feMorphology
         id="feMorphology2977-5"
         radius="4"
         in="fbSourceGraphic"
         result="result0" />
      <feGaussianBlur
         id="feGaussianBlur2979-6"
         in="result0"
         stdDeviation="8"
         result="result91" />
      <feComposite
         in2="result91"
         id="feComposite2981-2"
         operator="in"
         in="fbSourceGraphic" />
    </filter>
    <filter
       inkscape:label="Apparition"
       inkscape:menu="Blurs"
       inkscape:menu-tooltip="Edges are partly feathered out"
       style="color-interpolation-filters:sRGB"
       id="filter2973-36">
      <feMorphology
         radius="4"
         in="SourceGraphic"
         result="result0"
         id="feMorphology2967-7" />
      <feGaussianBlur
         in="result0"
         stdDeviation="8"
         result="result91"
         id="feGaussianBlur2969-5" />
      <feComposite
         operator="in"
         in="SourceGraphic"
         in2="result91"
         id="feComposite2971-3"
         result="fbSourceGraphic" />
      <feColorMatrix
         result="fbSourceGraphicAlpha"
         in="fbSourceGraphic"
         values="0 0 0 -1 0 0 0 0 -1 0 0 0 0 -1 0 0 0 0 1 0"
         id="feColorMatrix2975-5" />
      <feMorphology
         id="feMorphology2977-6"
         radius="4"
         in="fbSourceGraphic"
         result="result0" />
      <feGaussianBlur
         id="feGaussianBlur2979-2"
         in="result0"
         stdDeviation="8"
         result="result91" />
      <feComposite
         in2="result91"
         id="feComposite2981-9"
         operator="in"
         in="fbSourceGraphic" />
    </filter>
    <filter
       inkscape:label="Apparition"
       inkscape:menu="Blurs"
       inkscape:menu-tooltip="Edges are partly feathered out"
       style="color-interpolation-filters:sRGB"
       id="filter2973-36-2">
      <feMorphology
         radius="4"
         in="SourceGraphic"
         result="result0"
         id="feMorphology2967-7-7" />
      <feGaussianBlur
         in="result0"
         stdDeviation="8"
         result="result91"
         id="feGaussianBlur2969-5-0" />
      <feComposite
         operator="in"
         in="SourceGraphic"
         in2="result91"
         id="feComposite2971-3-9"
         result="fbSourceGraphic" />
      <feColorMatrix
         result="fbSourceGraphicAlpha"
         in="fbSourceGraphic"
         values="0 0 0 -1 0 0 0 0 -1 0 0 0 0 -1 0 0 0 0 1 0"
         id="feColorMatrix2975-5-3" />
      <feMorphology
         id="feMorphology2977-6-6"
         radius="4"
         in="fbSourceGraphic"
         result="result0" />
      <feGaussianBlur
         id="feGaussianBlur2979-2-0"
         in="result0"
         stdDeviation="8"
         result="result91" />
      <feComposite
         in2="result91"
         id="feComposite2981-9-6"
         operator="in"
         in="fbSourceGraphic" />
    </filter>
  </defs>
  <sodipodi:namedview
     pagecolor="#ffffff"
     bordercolor="#666666"
     borderopacity="1"
     objecttolerance="10"
     gridtolerance="10"
     guidetolerance="10"
     inkscape:pageopacity="0"
     inkscape:pageshadow="2"
     inkscape:window-width="1301"
     inkscape:window-height="744"
     id="namedview8"
     showgrid="false"
     fit-margin-top="0"
     fit-margin-left="0"
     fit-margin-right="0"
     fit-margin-bottom="0"
     inkscape:zoom="0.40992006"
     inkscape:cx="564.11584"
     inkscape:cy="77.607671"
     inkscape:window-x="65"
     inkscape:window-y="24"
     inkscape:window-maximized="1"
     inkscape:current-layer="svg6"
     showguides="false"
     inkscape:snap-bbox="true"
     inkscape:bbox-nodes="true"
     inkscape:snap-bbox-edge-midpoints="true"
     inkscape:bbox-paths="true"
     inkscape:snap-bbox-midpoints="true" />
  <path
     d="m 720.30343,396.31707 h -59.87 l -16.64,-41.6 c -17.1,-42.77 -57.91,-70.4 -103.98,-70.4 h -127 c -46.06,0 -86.88,27.63 -103.99,70.4 l -16.64,41.6 h -59.86 c -7.81,0 -13.54,7.34 -11.64,14.91 l 6,24 c 1.33,5.34 6.13,9.09 11.64,9.09 h 20.07 c -13.43,11.73 -22.08,28.78 -22.08,48 v 48 c 0,16.12 6.16,30.67 16,41.93 v 54.07 c 0,17.67001 14.33,32.00001 32,32.00001 h 32 c 17.67,0 32,-14.33 32,-32.00001 v -32 h 256 v 32 c 0,17.67001 14.33,32.00001 32,32.00001 h 32 c 17.67,0 32,-14.33 32,-32.00001 v -54.07 c 9.84,-11.25 16,-25.8 16,-41.93 v -48 c 0,-19.22 -8.65,-36.27 -22.07,-48 h 20.07 c 5.51,0 10.31,-3.75 11.64,-9.09 l 6,-24 c 1.89,-7.57 -3.84,-14.91 -11.65,-14.91 z m -352.06,-17.83 c 7.29,-18.22 24.94,-30.17 44.57,-30.17 h 127 c 19.63,0 37.28,11.95 44.57,30.17 l 19.93,49.83 h -256 z m -51.93,161.63 c -19.2,0 -32,-12.76 -32,-31.9 0,-19.14 12.8,-31.9 32,-31.9 19.2,0 48,28.71 48,47.85 0,19.14 -28.8,15.95 -48,15.95 z m 320,0 c -19.2,0 -48,3.19 -48,-15.95 0,-19.14 28.8,-47.85 48,-47.85 19.2,0 32,12.76 32,31.9 0,19.14 -12.8,31.9 -32,31.9 z"
     id="path2-2"
     style="fill:none;stroke:#43bdd5;stroke-width:30;stroke-miterlimit:4;stroke-dasharray:none;stroke-opacity:1"
     inkscape:connector-curvature="0" />
  <path
     d="m 1672.9379,396.31708 h -59.87 l -16.64,-41.6 c -17.1,-42.77 -57.91,-70.4 -103.98,-70.4 h -127 c -46.06,0 -86.88,27.63 -103.99,70.4 l -16.64,41.6 h -59.86 c -7.81,0 -13.54,7.34 -11.64,14.91 l 6,24 c 1.33,5.34 6.13,9.09 11.64,9.09 h 20.07 c -13.43,11.73 -22.08,28.78 -22.08,48 v 48 c 0,16.12 6.16,30.67 16,41.93 v 54.07001 c 0,17.67 14.33,32 32,32 h 32 c 17.67,0 32,-14.33 32,-32 v -32 h 256 v 32 c 0,17.67 14.33,32 32,32 h 32 c 17.67,0 32,-14.33 32,-32 v -54.07001 c 9.84,-11.25 16,-25.8 16,-41.93 v -48 c 0,-19.22 -8.65,-36.27 -22.07,-48 h 20.07 c 5.51,0 10.31,-3.75 11.64,-9.09 l 6,-24 c 1.89,-7.57 -3.84,-14.91 -11.65,-14.91 z m -352.06,-17.83 c 7.29,-18.22 24.94,-30.17 44.57,-30.17 h 127 c 19.63,0 37.28,11.95 44.57,30.17 l 19.93,49.83 h -256 z m -51.93,161.63 c -19.2,0 -32,-12.76 -32,-31.9 0,-19.14 12.8,-31.9 32,-31.9 19.2,0 48,28.71 48,47.85 0,19.14 -28.8,15.95 -48,15.95 z m 320,0 c -19.2,0 -48,3.19 -48,-15.95 0,-19.14 28.8,-47.85 48,-47.85 19.2,0 32,12.76 32,31.9 0,19.14 -12.8,31.9 -32,31.9 z"
     id="path2"
     style="fill:#43bdd5;stroke:none;stroke-width:30"
     inkscape:connector-curvature="0" />
</svg>
