<?xml version="1.0" encoding="UTF-8" standalone="no"?>
<svg
   xmlns:dc="http://purl.org/dc/elements/1.1/"
   xmlns:cc="http://creativecommons.org/ns#"
   xmlns:rdf="http://www.w3.org/1999/02/22-rdf-syntax-ns#"
   xmlns:svg="http://www.w3.org/2000/svg"
   xmlns="http://www.w3.org/2000/svg"
   xmlns:sodipodi="http://sodipodi.sourceforge.net/DTD/sodipodi-0.dtd"
   xmlns:inkscape="http://www.inkscape.org/namespaces/inkscape"
   aria-hidden="true"
   focusable="false"
   data-prefix="fas"
   data-icon="hand-holding-usd"
   class="svg-inline--fa fa-hand-holding-usd fa-w-17"
   role="img"
   viewBox="0 0 1905.2682 952.63409"
   version="1.1"
   id="svg6"
   sodipodi:docname="home.svg"
   width="1905.2682"
   height="952.63409"
   inkscape:version="0.92.3 (2405546, 2018-03-11)"
   enable-background="new">
  <metadata
     id="metadata12">
    <rdf:RDF>
      <cc:Work
         rdf:about="">
        <dc:format>image/svg+xml</dc:format>
        <dc:type
           rdf:resource="http://purl.org/dc/dcmitype/StillImage" />
        <dc:title></dc:title>
      </cc:Work>
    </rdf:RDF>
  </metadata>
  <defs
     id="defs10">
    <filter
       inkscape:label="Apparition"
       inkscape:menu="Blurs"
       inkscape:menu-tooltip="Edges are partly feathered out"
       style="color-interpolation-filters:sRGB"
       id="filter2973">
      <feMorphology
         radius="4"
         in="SourceGraphic"
         result="result0"
         id="feMorphology2967" />
      <feGaussianBlur
         in="result0"
         stdDeviation="8"
         result="result91"
         id="feGaussianBlur2969" />
      <feComposite
         operator="in"
         in="SourceGraphic"
         in2="result91"
         id="feComposite2971"
         result="fbSourceGraphic" />
      <feColorMatrix
         result="fbSourceGraphicAlpha"
         in="fbSourceGraphic"
         values="0 0 0 -1 0 0 0 0 -1 0 0 0 0 -1 0 0 0 0 1 0"
         id="feColorMatrix2975" />
      <feMorphology
         id="feMorphology2977"
         radius="4"
         in="fbSourceGraphic"
         result="result0" />
      <feGaussianBlur
         id="feGaussianBlur2979"
         in="result0"
         stdDeviation="8"
         result="result91" />
      <feComposite
         in2="result91"
         id="feComposite2981"
         operator="in"
         in="fbSourceGraphic" />
    </filter>
    <filter
       inkscape:label="Apparition"
       inkscape:menu="Blurs"
       inkscape:menu-tooltip="Edges are partly feathered out"
       style="color-interpolation-filters:sRGB"
       id="filter2973-3">
      <feMorphology
         radius="4"
         in="SourceGraphic"
         result="result0"
         id="feMorphology2967-6" />
      <feGaussianBlur
         in="result0"
         stdDeviation="8"
         result="result91"
         id="feGaussianBlur2969-7" />
      <feComposite
         operator="in"
         in="SourceGraphic"
         in2="result91"
         id="feComposite2971-5"
         result="fbSourceGraphic" />
      <feColorMatrix
         result="fbSourceGraphicAlpha"
         in="fbSourceGraphic"
         values="0 0 0 -1 0 0 0 0 -1 0 0 0 0 -1 0 0 0 0 1 0"
         id="feColorMatrix2975-3" />
      <feMorphology
         id="feMorphology2977-5"
         radius="4"
         in="fbSourceGraphic"
         result="result0" />
      <feGaussianBlur
         id="feGaussianBlur2979-6"
         in="result0"
         stdDeviation="8"
         result="result91" />
      <feComposite
         in2="result91"
         id="feComposite2981-2"
         operator="in"
         in="fbSourceGraphic" />
    </filter>
    <filter
       inkscape:label="Apparition"
       inkscape:menu="Blurs"
       inkscape:menu-tooltip="Edges are partly feathered out"
       style="color-interpolation-filters:sRGB"
       id="filter2973-36">
      <feMorphology
         radius="4"
         in="SourceGraphic"
         result="result0"
         id="feMorphology2967-7" />
      <feGaussianBlur
         in="result0"
         stdDeviation="8"
         result="result91"
         id="feGaussianBlur2969-5" />
      <feComposite
         operator="in"
         in="SourceGraphic"
         in2="result91"
         id="feComposite2971-3"
         result="fbSourceGraphic" />
      <feColorMatrix
         result="fbSourceGraphicAlpha"
         in="fbSourceGraphic"
         values="0 0 0 -1 0 0 0 0 -1 0 0 0 0 -1 0 0 0 0 1 0"
         id="feColorMatrix2975-5" />
      <feMorphology
         id="feMorphology2977-6"
         radius="4"
         in="fbSourceGraphic"
         result="result0" />
      <feGaussianBlur
         id="feGaussianBlur2979-2"
         in="result0"
         stdDeviation="8"
         result="result91" />
      <feComposite
         in2="result91"
         id="feComposite2981-9"
         operator="in"
         in="fbSourceGraphic" />
    </filter>
    <filter
       inkscape:label="Apparition"
       inkscape:menu="Blurs"
       inkscape:menu-tooltip="Edges are partly feathered out"
       style="color-interpolation-filters:sRGB"
       id="filter2973-36-2">
      <feMorphology
         radius="4"
         in="SourceGraphic"
         result="result0"
         id="feMorphology2967-7-7" />
      <feGaussianBlur
         in="result0"
         stdDeviation="8"
         result="result91"
         id="feGaussianBlur2969-5-0" />
      <feComposite
         operator="in"
         in="SourceGraphic"
         in2="result91"
         id="feComposite2971-3-9"
         result="fbSourceGraphic" />
      <feColorMatrix
         result="fbSourceGraphicAlpha"
         in="fbSourceGraphic"
         values="0 0 0 -1 0 0 0 0 -1 0 0 0 0 -1 0 0 0 0 1 0"
         id="feColorMatrix2975-5-3" />
      <feMorphology
         id="feMorphology2977-6-6"
         radius="4"
         in="fbSourceGraphic"
         result="result0" />
      <feGaussianBlur
         id="feGaussianBlur2979-2-0"
         in="result0"
         stdDeviation="8"
         result="result91" />
      <feComposite
         in2="result91"
         id="feComposite2981-9-6"
         operator="in"
         in="fbSourceGraphic" />
    </filter>
  </defs>
  <sodipodi:namedview
     pagecolor="#ffffff"
     bordercolor="#666666"
     borderopacity="1"
     objecttolerance="10"
     gridtolerance="10"
     guidetolerance="10"
     inkscape:pageopacity="0"
     inkscape:pageshadow="2"
     inkscape:window-width="1301"
     inkscape:window-height="744"
     id="namedview8"
     showgrid="false"
     fit-margin-top="0"
     fit-margin-left="0"
     fit-margin-right="0"
     fit-margin-bottom="0"
     inkscape:zoom="0.40992006"
     inkscape:cx="564.11584"
     inkscape:cy="77.607671"
     inkscape:window-x="65"
     inkscape:window-y="24"
     inkscape:window-maximized="1"
     inkscape:current-layer="svg6"
     showguides="false"
     inkscape:snap-bbox="true"
     inkscape:bbox-nodes="true"
     inkscape:snap-bbox-edge-midpoints="true"
     inkscape:bbox-paths="true"
     inkscape:snap-bbox-midpoints="true" />
  <path
     inkscape:connector-curvature="0"
     d="M 469.29225,377.18568 299.69308,516.8702 v 150.75988 a 14.718157,14.718157 0 0 0 14.71817,14.7182 l 103.08229,-0.2668 a 14.718157,14.718157 0 0 0 14.64456,-14.7181 v -88.0422 a 14.718157,14.718157 0 0 1 14.71816,-14.7182 h 58.87263 a 14.718157,14.718157 0 0 1 14.71816,14.7182 v 87.9778 a 14.718157,14.718157 0 0 0 14.71815,14.7641 l 103.0455,0.2852 a 14.718157,14.718157 0 0 0 14.71815,-14.7182 V 516.76901 L 483.36649,377.18568 a 11.213396,11.213396 0 0 0 -14.07424,0 z m 267.898,94.94132 -76.90231,-63.38927 V 281.32449 a 11.038618,11.038618 0 0 0 -11.03863,-11.03862 h -51.51354 a 11.038618,11.038618 0 0 0 -11.03863,11.03862 v 66.79283 l -82.35728,-67.75871 a 44.154471,44.154471 0 0 0 -56.11297,0 L 215.37644,472.127 a 11.038618,11.038618 0 0 0 -1.47182,15.54605 l 23.45706,28.51643 a 11.038618,11.038618 0 0 0 15.55525,1.49941 L 469.29225,339.47041 a 11.213396,11.213396 0 0 1 14.07424,0 L 699.751,517.68889 a 11.038618,11.038618 0 0 0 15.54605,-1.47181 l 23.4571,-28.51643 a 11.038618,11.038618 0 0 0 -1.5639,-15.57365 z"
     id="path2042"
     style="fill:none;fill-opacity:1;stroke:#43bdd5;stroke-width:29.2206192;stroke-miterlimit:4;stroke-dasharray:none;stroke-opacity:1" />
  <path
     inkscape:connector-curvature="0"
     d="M 1421.7385,374.54164 1247.6157,517.95186 V 672.7329 a 15.110724,15.110724 0 0 0 15.1107,15.1107 l 105.8317,-0.2739 a 15.110724,15.110724 0 0 0 15.0352,-15.1107 v -90.3904 a 15.110724,15.110724 0 0 1 15.1107,-15.1108 h 60.4429 a 15.110724,15.110724 0 0 1 15.1108,15.1108 v 90.3243 a 15.110724,15.110724 0 0 0 15.1107,15.158 l 105.7939,0.2927 a 15.110724,15.110724 0 0 0 15.1108,-15.1107 V 517.84797 l -174.085,-143.30633 a 11.512483,11.512483 0 0 0 -14.4496,0 z m 275.0435,97.47362 -78.9536,-65.08001 V 276.12361 a 11.333043,11.333043 0 0 0 -11.333,-11.33305 h -52.8875 a 11.333043,11.333043 0 0 0 -11.3331,11.33305 v 68.57435 l -84.5539,-69.56599 a 45.332173,45.332173 0 0 0 -57.6097,0 l -239.0611,196.88329 a 11.333043,11.333043 0 0 0 -1.5111,15.9607 l 24.0828,29.27703 a 11.333043,11.333043 0 0 0 15.9701,1.5394 l 222.1466,-182.97198 a 11.512483,11.512483 0 0 1 14.4496,0 l 222.156,182.97198 a 11.333043,11.333043 0 0 0 15.9607,-1.51107 l 24.0827,-29.27703 a 11.333043,11.333043 0 0 0 -1.6055,-15.98903 z"
     id="path2042-1"
     style="fill:#43bdd5;fill-opacity:1;stroke-width:0.94442028" />
</svg>
