<?xml version="1.0" encoding="UTF-8" standalone="no"?>
<svg
   xmlns:dc="http://purl.org/dc/elements/1.1/"
   xmlns:cc="http://creativecommons.org/ns#"
   xmlns:rdf="http://www.w3.org/1999/02/22-rdf-syntax-ns#"
   xmlns:svg="http://www.w3.org/2000/svg"
   xmlns="http://www.w3.org/2000/svg"
   xmlns:sodipodi="http://sodipodi.sourceforge.net/DTD/sodipodi-0.dtd"
   xmlns:inkscape="http://www.inkscape.org/namespaces/inkscape"
   aria-hidden="true"
   focusable="false"
   data-prefix="fas"
   data-icon="hand-holding-usd"
   class="svg-inline--fa fa-hand-holding-usd fa-w-17"
   role="img"
   viewBox="0 0 1905.2682 952.63409"
   version="1.1"
   id="svg6"
   sodipodi:docname="paw.svg"
   width="1905.2682"
   height="952.63409"
   inkscape:version="0.92.3 (2405546, 2018-03-11)"
   enable-background="new">
  <metadata
     id="metadata12">
    <rdf:RDF>
      <cc:Work
         rdf:about="">
        <dc:format>image/svg+xml</dc:format>
        <dc:type
           rdf:resource="http://purl.org/dc/dcmitype/StillImage" />
        <dc:title></dc:title>
      </cc:Work>
    </rdf:RDF>
  </metadata>
  <defs
     id="defs10">
    <filter
       inkscape:label="Apparition"
       inkscape:menu="Blurs"
       inkscape:menu-tooltip="Edges are partly feathered out"
       style="color-interpolation-filters:sRGB"
       id="filter2973">
      <feMorphology
         radius="4"
         in="SourceGraphic"
         result="result0"
         id="feMorphology2967" />
      <feGaussianBlur
         in="result0"
         stdDeviation="8"
         result="result91"
         id="feGaussianBlur2969" />
      <feComposite
         operator="in"
         in="SourceGraphic"
         in2="result91"
         id="feComposite2971"
         result="fbSourceGraphic" />
      <feColorMatrix
         result="fbSourceGraphicAlpha"
         in="fbSourceGraphic"
         values="0 0 0 -1 0 0 0 0 -1 0 0 0 0 -1 0 0 0 0 1 0"
         id="feColorMatrix2975" />
      <feMorphology
         id="feMorphology2977"
         radius="4"
         in="fbSourceGraphic"
         result="result0" />
      <feGaussianBlur
         id="feGaussianBlur2979"
         in="result0"
         stdDeviation="8"
         result="result91" />
      <feComposite
         in2="result91"
         id="feComposite2981"
         operator="in"
         in="fbSourceGraphic" />
    </filter>
    <filter
       inkscape:label="Apparition"
       inkscape:menu="Blurs"
       inkscape:menu-tooltip="Edges are partly feathered out"
       style="color-interpolation-filters:sRGB"
       id="filter2973-3">
      <feMorphology
         radius="4"
         in="SourceGraphic"
         result="result0"
         id="feMorphology2967-6" />
      <feGaussianBlur
         in="result0"
         stdDeviation="8"
         result="result91"
         id="feGaussianBlur2969-7" />
      <feComposite
         operator="in"
         in="SourceGraphic"
         in2="result91"
         id="feComposite2971-5"
         result="fbSourceGraphic" />
      <feColorMatrix
         result="fbSourceGraphicAlpha"
         in="fbSourceGraphic"
         values="0 0 0 -1 0 0 0 0 -1 0 0 0 0 -1 0 0 0 0 1 0"
         id="feColorMatrix2975-3" />
      <feMorphology
         id="feMorphology2977-5"
         radius="4"
         in="fbSourceGraphic"
         result="result0" />
      <feGaussianBlur
         id="feGaussianBlur2979-6"
         in="result0"
         stdDeviation="8"
         result="result91" />
      <feComposite
         in2="result91"
         id="feComposite2981-2"
         operator="in"
         in="fbSourceGraphic" />
    </filter>
    <filter
       inkscape:label="Apparition"
       inkscape:menu="Blurs"
       inkscape:menu-tooltip="Edges are partly feathered out"
       style="color-interpolation-filters:sRGB"
       id="filter2973-36">
      <feMorphology
         radius="4"
         in="SourceGraphic"
         result="result0"
         id="feMorphology2967-7" />
      <feGaussianBlur
         in="result0"
         stdDeviation="8"
         result="result91"
         id="feGaussianBlur2969-5" />
      <feComposite
         operator="in"
         in="SourceGraphic"
         in2="result91"
         id="feComposite2971-3"
         result="fbSourceGraphic" />
      <feColorMatrix
         result="fbSourceGraphicAlpha"
         in="fbSourceGraphic"
         values="0 0 0 -1 0 0 0 0 -1 0 0 0 0 -1 0 0 0 0 1 0"
         id="feColorMatrix2975-5" />
      <feMorphology
         id="feMorphology2977-6"
         radius="4"
         in="fbSourceGraphic"
         result="result0" />
      <feGaussianBlur
         id="feGaussianBlur2979-2"
         in="result0"
         stdDeviation="8"
         result="result91" />
      <feComposite
         in2="result91"
         id="feComposite2981-9"
         operator="in"
         in="fbSourceGraphic" />
    </filter>
    <filter
       inkscape:label="Apparition"
       inkscape:menu="Blurs"
       inkscape:menu-tooltip="Edges are partly feathered out"
       style="color-interpolation-filters:sRGB"
       id="filter2973-36-2">
      <feMorphology
         radius="4"
         in="SourceGraphic"
         result="result0"
         id="feMorphology2967-7-7" />
      <feGaussianBlur
         in="result0"
         stdDeviation="8"
         result="result91"
         id="feGaussianBlur2969-5-0" />
      <feComposite
         operator="in"
         in="SourceGraphic"
         in2="result91"
         id="feComposite2971-3-9"
         result="fbSourceGraphic" />
      <feColorMatrix
         result="fbSourceGraphicAlpha"
         in="fbSourceGraphic"
         values="0 0 0 -1 0 0 0 0 -1 0 0 0 0 -1 0 0 0 0 1 0"
         id="feColorMatrix2975-5-3" />
      <feMorphology
         id="feMorphology2977-6-6"
         radius="4"
         in="fbSourceGraphic"
         result="result0" />
      <feGaussianBlur
         id="feGaussianBlur2979-2-0"
         in="result0"
         stdDeviation="8"
         result="result91" />
      <feComposite
         in2="result91"
         id="feComposite2981-9-6"
         operator="in"
         in="fbSourceGraphic" />
    </filter>
  </defs>
  <sodipodi:namedview
     pagecolor="#ffffff"
     bordercolor="#666666"
     borderopacity="1"
     objecttolerance="10"
     gridtolerance="10"
     guidetolerance="10"
     inkscape:pageopacity="0"
     inkscape:pageshadow="2"
     inkscape:window-width="1301"
     inkscape:window-height="744"
     id="namedview8"
     showgrid="false"
     fit-margin-top="0"
     fit-margin-left="0"
     fit-margin-right="0"
     fit-margin-bottom="0"
     inkscape:zoom="0.40992006"
     inkscape:cx="564.11584"
     inkscape:cy="77.607671"
     inkscape:window-x="65"
     inkscape:window-y="24"
     inkscape:window-maximized="1"
     inkscape:current-layer="svg6"
     showguides="false"
     inkscape:snap-bbox="true"
     inkscape:bbox-nodes="true"
     inkscape:snap-bbox-edge-midpoints="true"
     inkscape:bbox-paths="true"
     inkscape:snap-bbox-midpoints="true" />
  <path
     inkscape:connector-curvature="0"
     style="fill:#43bdd5;fill-opacity:1;stroke:#43bdd5;stroke-width:1.06048954;stroke-opacity:1"
     d="m 1428.9565,442.38485 c -84.2135,0 -203.614,130.1857 -203.614,212.36303 0,37.01109 28.4317,59.12229 76.0795,59.12229 51.7943,0 85.9951,-26.59708 127.5345,-26.59708 41.8999,0 76.1962,26.59708 127.5345,26.59708 47.6478,0 76.0795,-22.1112 76.0795,-59.12229 0,-82.17733 -119.4005,-212.36303 -203.614,-212.36303 z m -156.1889,-13.37276 c -11.0291,-36.74597 -45.0072,-60.54336 -75.8886,-53.16234 -30.8815,7.381 -46.9691,43.15131 -35.94,79.89728 11.0291,36.74596 45.0072,60.54334 75.8886,53.16234 30.8815,-7.38102 46.9691,-43.15133 35.94,-79.89728 z m 89.8447,-22.03698 c 32.8115,-8.63238 49.2279,-52.96085 36.6717,-99.0073 -12.5562,-46.04645 -49.334,-76.36585 -82.1455,-67.73346 -32.8116,8.63238 -49.2279,52.96084 -36.6718,99.0073 12.5562,46.04645 49.3446,76.37645 82.1456,67.73346 z m 298.4111,-31.11476 c -30.8814,-7.38101 -64.8489,16.41638 -75.8886,53.16234 -11.0291,36.74596 5.0585,72.51627 35.94,79.89728 30.8814,7.38101 64.8489,-16.41638 75.8886,-53.16234 11.0291,-36.74596 -5.0585,-72.51627 -35.94,-79.89728 z m -165.7227,31.11476 c 32.8116,8.63239 69.5894,-21.68701 82.1455,-67.73346 12.5562,-46.04646 -3.8601,-90.36431 -36.6717,-99.0073 -32.8115,-8.64299 -69.5893,21.68701 -82.1455,67.73346 -12.5562,46.04645 3.8602,90.37492 36.6717,99.0073 z"
     id="path2706-8" />
  <path
     inkscape:connector-curvature="0"
     style="fill:none;fill-opacity:1;stroke:#43bdd5;stroke-width:28.49632645;stroke-miterlimit:4;stroke-dasharray:none;stroke-opacity:1"
     d="m 476.32204,444.07792 c -79.9924,0 -193.40829,123.66047 -193.40829,201.71884 0,35.156 27.00666,56.159 72.26621,56.159 49.19828,0 81.68478,-25.264 121.14208,-25.264 39.7999,0 72.3771,25.264 121.1422,25.264 45.2595,0 72.2662,-21.003 72.2662,-56.159 0,-78.05837 -113.4159,-201.71884 -193.4084,-201.71884 z M 327.96177,431.37544 c -10.47627,-34.90417 -42.75129,-57.50878 -72.08489,-50.49771 -29.3336,7.01104 -44.61487,40.98846 -34.13859,75.89263 10.47629,34.90416 42.7513,57.50875 72.0849,50.49771 29.33358,-7.01107 44.61487,-40.98848 34.13858,-75.89263 z m 85.34147,-20.93243 c 31.1669,-8.19971 46.7605,-50.30632 34.8336,-94.04481 -11.9268,-43.73849 -46.8612,-72.5382 -78.0282,-64.3385 -31.16692,8.19971 -46.76047,50.30632 -34.83362,94.04482 11.92685,43.73848 46.87132,72.54827 78.02822,64.33849 z m 283.454,-29.55521 c -29.3336,-7.01106 -61.5986,15.59355 -72.0849,50.49771 -10.4763,34.90416 4.805,68.88157 34.1386,75.89263 29.3336,7.01105 61.5985,-15.59355 72.0849,-50.49771 10.4763,-34.90416 -4.805,-68.88158 -34.1386,-75.89263 z m -157.4163,29.55521 c 31.167,8.19971 66.1014,-20.60001 78.0282,-64.33849 11.9269,-43.7385 -3.6667,-85.83503 -34.8336,-94.04482 -31.167,-8.20978 -66.1014,20.60001 -78.0282,64.3385 -11.9269,43.73849 3.6667,85.8451 34.8336,94.04481 z"
     id="path2706" />
</svg>
