<?xml version="1.0" encoding="utf-8"?>
<!-- Generator: Adobe Illustrator 22.1.0, SVG Export Plug-In . SVG Version: 6.00 Build 0)  -->
<svg version="1.1" id="Calque_1" xmlns="http://www.w3.org/2000/svg" xmlns:xlink="http://www.w3.org/1999/xlink" x="0px" y="0px"
  viewBox="0 0 48 48" style="enable-background:new 0 0 48 48;" xml:space="preserve">
  <style type="text/css">
   .st0{opacity:0.2;}
   .st1{fill:#FFFFFF;}
</style>
<g
   id="XMLID_88_">
   <g id="XMLID_88_" class="st0">
    <path 
      d="M 24,2.1 C 36.1,2.1 45.9,11.9 45.9,24 45.9,36.1 36.1,45.9 24,45.9 11.9,45.9 2.1,36.1 2.1,24 2.1,11.9 11.9,2.1 24,2.1 m 0,-2 C 10.8,0.1 0.1,10.8 0.1,24 0.1,37.2 10.8,47.9 24,47.9 37.2,47.9 47.9,37.2 47.9,24 47.9,10.8 37.2,0.1 24,0.1 Z"
      class="st1"
      id="XMLID_66_" />
   </g>
   <path
      class="st1"
      d="m 16.389358,31.600932 c 0.674698,0.673377 1.085279,1.586619 1.087559,2.604547 -0.0023,1.016128 -0.412861,1.92937 -1.084797,2.599985 l -0.0026,0.0019 c -0.672415,0.670255 -1.59202,1.079517 -2.61439,1.079517 -1.02105,0 -1.937894,-0.410582 -2.611271,-1.081197 -0.671116,-0.670762 -1.084458,-1.583045 -1.084458,-2.600012 0,-1.017928 0.413222,-1.933453 1.084438,-2.605388 v 8.16e-4 c 0.673376,-0.670616 1.59022,-1.082997 2.61127,-1.082997 1.02225,-6.41e-4 1.939934,0.412621 2.61427,1.082877 z m 0,-0.001 v 8.15e-4 c 0.0018,0 0.0018,0 0.0018,0 z m -5.22578,5.206812 c 0,0 0,0 0,-0.0019 -8.72e-4,0 -8.72e-4,0 -8.72e-4,0 z M 10.081902,19.54621 v 5.316902 c 3.47061,0.0018 6.753453,1.365121 9.209735,3.825484 2.456283,2.452201 3.81384,5.73961 3.819243,9.222823 h 0.0018 v 0.0095 h 5.338382 c -0.0044,-5.063874 -2.063219,-9.650855 -5.390965,-12.981241 -3.328224,-3.330147 -7.913763,-5.390254 -12.978194,-5.393375 z m 0.0095,-9.467129 v 5.314233 c 12.406383,0.0085 22.491185,10.109051 22.500188,22.527081 h 5.329009 C 37.917,30.245175 34.797665,23.291832 29.756166,18.247091 24.713225,13.20427 17.763483,10.082295 10.091387,10.079174 Z"
      id="path12" />
   </g>
</svg>