<?xml version="1.0" encoding="utf-8"?>
<!-- Generator: Adobe Illustrator 22.1.0, SVG Export Plug-In . SVG Version: 6.00 Build 0)  -->
<svg version="1.1" id="Calque_1" xmlns="http://www.w3.org/2000/svg" xmlns:xlink="http://www.w3.org/1999/xlink" x="0px" y="0px"
	 viewBox="0 0 48 48" style="enable-background:new 0 0 48 48;" xml:space="preserve">
<style type="text/css">
	.st0{opacity:0.2;}
	.st1{fill:#FFFFFF;}
</style>
<g id="XMLID_127_">
	<g id="XMLID_88_" class="st0">
		<path id="XMLID_66_" class="st1" d="M24,2.1c12.1,0,21.9,9.8,21.9,21.9c0,12.1-9.8,21.9-21.9,21.9C11.9,45.9,2.1,36.1,2.1,24
			C2.1,11.9,11.9,2.1,24,2.1 M24,0.1C10.8,0.1,0.1,10.8,0.1,24c0,13.2,10.7,23.9,23.9,23.9c13.2,0,23.9-10.7,23.9-23.9
			C47.9,10.8,37.2,0.1,24,0.1L24,0.1z"/>
	</g>
	<g id="XMLID_86_">
		<path id="XMLID_87_" class="st1" d="M20.2,38H26c0,0,0-7.7,0-14h4.4l0.5-4.9h-5v-3.1c0-1.1,0.5-1.2,1-1.2s3.9,0,3.9,0v-4.8l-4.6,0
			c-5.1,0-6,3.6-6,5.8v3.2H17V24h3.2C20.2,30.4,20.2,38,20.2,38z"/>
	</g>
</g>
</svg>
