<?xml version="1.0" encoding="utf-8"?>
<!-- Generator: Adobe Illustrator 22.1.0, SVG Export Plug-In . SVG Version: 6.00 Build 0)  -->
<svg version="1.1" id="Calque_1" xmlns="http://www.w3.org/2000/svg" xmlns:xlink="http://www.w3.org/1999/xlink" x="0px" y="0px"
	 viewBox="0 0 48 48" style="enable-background:new 0 0 48 48;" xml:space="preserve">
<style type="text/css">
	.st0{fill:#FFFFFF;}
	.st1{opacity:0.2;}
</style>
<g id="XMLID_125_">
	<g id="XMLID_80_">
		<path id="XMLID_81_" class="st0" d="M36,24.6v8.8h-5.1v-8.3c0-2.1-0.7-3.5-2.6-3.5c-1.4,0-2.3,1-2.6,1.9c-0.1,0.3-0.2,0.8-0.2,1.3
			v8.6h-5.1c0,0,0.1-14,0-15.4h5.1v2.2c0,0,0,0,0,0.1h0v-0.1c0.7-1,1.9-2.5,4.6-2.5C33.4,17.6,36,19.8,36,24.6L36,24.6z M14.9,10.6
			c-1.8,0-2.9,1.2-2.9,2.7c0,1.5,1.1,2.7,2.8,2.7h0c1.8,0,2.9-1.2,2.9-2.7C17.8,11.7,16.7,10.6,14.9,10.6L14.9,10.6z M12.3,33.4h5.1
			V18h-5.1V33.4z M12.3,33.4"/>
	</g>
	<g id="XMLID_62_" class="st1">
		<path id="XMLID_61_" class="st0" d="M24,2.1c12.1,0,21.9,9.8,21.9,21.9S36.1,45.9,24,45.9C11.9,45.9,2.1,36.1,2.1,24
			S11.9,2.1,24,2.1 M24,0.1C10.8,0.1,0.1,10.8,0.1,24c0,13.2,10.7,23.9,23.9,23.9c13.2,0,23.9-10.7,23.9-23.9
			C47.9,10.8,37.2,0.1,24,0.1L24,0.1z"/>
	</g>
</g>
</svg>
