<?xml version="1.0" encoding="utf-8"?>
<!-- Generator: Adobe Illustrator 22.1.0, SVG Export Plug-In . SVG Version: 6.00 Build 0)  -->
<svg version="1.1" id="Calque_1" xmlns="http://www.w3.org/2000/svg" xmlns:xlink="http://www.w3.org/1999/xlink" x="0px" y="0px"
	 viewBox="0 0 48 48" style="enable-background:new 0 0 48 48;" xml:space="preserve">
<style type="text/css">
	.st0{fill:#FFFFFF;}
	.st1{opacity:0.2;}
</style>
<g id="XMLID_123_">
	<g id="XMLID_76_">
		<path id="XMLID_77_" class="st0" d="M35.5,17.5c-0.8,0.3-1.6,0.6-2.5,0.7c0.9-0.5,1.6-1.4,1.9-2.4c-0.8,0.5-1.8,0.9-2.7,1
			c-0.8-0.8-1.9-1.4-3.1-1.4c-2.4,0-4.3,1.9-4.3,4.3c0,0.3,0,0.7,0.1,1c-3.6-0.2-6.8-1.9-8.9-4.5c-0.4,0.6-0.6,1.4-0.6,2.2
			c0,1.5,0.8,2.8,1.9,3.6c-0.7,0-1.4-0.2-2-0.5v0.1c0,2.1,1.5,3.8,3.5,4.2c-0.4,0.1-0.7,0.1-1.1,0.1c-0.3,0-0.5,0-0.8-0.1
			c0.6,1.7,2.1,3,4,3c-1.5,1.2-3.3,1.8-5.4,1.8c-0.3,0-0.7,0-1-0.1c1.9,1.2,4.2,1.9,6.6,1.9c7.9,0,12.3-6.6,12.3-12.3l0-0.6
			C34.2,19.1,34.9,18.4,35.5,17.5L35.5,17.5z M35.5,17.5"/>
	</g>
	<g id="XMLID_22_" class="st1">
		<path id="XMLID_32_" class="st0" d="M24,2.1c12.1,0,21.9,9.8,21.9,21.9c0,12.1-9.8,21.9-21.9,21.9C11.9,45.9,2.1,36.1,2.1,24
			C2.1,11.9,11.9,2.1,24,2.1 M24,0.1C10.8,0.1,0.1,10.8,0.1,24c0,13.2,10.7,23.9,23.9,23.9c13.2,0,23.9-10.7,23.9-23.9
			C47.9,10.8,37.2,0.1,24,0.1L24,0.1z"/>
	</g>
</g>
</svg>
