<?xml version="1.0" encoding="UTF-8" standalone="no"?>
<!-- Created with Inkscape (http://www.inkscape.org/) -->

<svg
   xmlns:dc="http://purl.org/dc/elements/1.1/"
   xmlns:cc="http://creativecommons.org/ns#"
   xmlns:rdf="http://www.w3.org/1999/02/22-rdf-syntax-ns#"
   xmlns:svg="http://www.w3.org/2000/svg"
   xmlns="http://www.w3.org/2000/svg"
   xmlns:sodipodi="http://sodipodi.sourceforge.net/DTD/sodipodi-0.dtd"
   xmlns:inkscape="http://www.inkscape.org/namespaces/inkscape"
   width="5.007297mm"
   height="11.982905mm"
   viewBox="0 0 5.007297 11.982905"
   version="1.1"
   id="svg2341"
   sodipodi:docname="blue.svg"
   inkscape:version="0.92.3 (2405546, 2018-03-11)">
  <defs
     id="defs2335" />
  <sodipodi:namedview
     id="base"
     pagecolor="#ffffff"
     bordercolor="#666666"
     borderopacity="1.0"
     inkscape:pageopacity="0.0"
     inkscape:pageshadow="2"
     inkscape:zoom="7.5581558"
     inkscape:cx="-1.848594"
     inkscape:cy="31.053373"
     inkscape:document-units="mm"
     inkscape:current-layer="layer1"
     showgrid="false"
     fit-margin-top="0"
     fit-margin-left="0"
     fit-margin-right="0"
     fit-margin-bottom="0"
     inkscape:window-width="1301"
     inkscape:window-height="744"
     inkscape:window-x="65"
     inkscape:window-y="24"
     inkscape:window-maximized="1" />
  <metadata
     id="metadata2338">
    <rdf:RDF>
      <cc:Work
         rdf:about="">
        <dc:format>image/svg+xml</dc:format>
        <dc:type
           rdf:resource="http://purl.org/dc/dcmitype/StillImage" />
        <dc:title></dc:title>
      </cc:Work>
    </rdf:RDF>
  </metadata>
  <g
     inkscape:label="Calque 1"
     inkscape:groupmode="layer"
     id="layer1"
     transform="translate(-72.063906,-90.993254)">
    <g
       id="g344"
       transform="matrix(0.35277777,0,0,-0.35277777,74.802278,98.155948)">
      <path
         d="M 0,0 C 0.073,-0.055 0.012,-0.244 0.032,-0.352 -0.041,-0.297 0.02,-0.107 0,0"
         style="fill:#97dde3;fill-opacity:1;fill-rule:evenodd;stroke:none"
         id="path346"
         inkscape:connector-curvature="0" />
    </g>
    <g
       id="g364"
       transform="matrix(0.35277777,0,0,-0.35277777,74.813496,98.313746)">
      <path
         d="M 0,0 C 0.074,-0.076 0.011,-0.288 0.032,-0.417 -0.042,-0.34 0.021,-0.128 0,0"
         style="fill:#97dde3;fill-opacity:1;fill-rule:evenodd;stroke:none"
         id="path366"
         inkscape:connector-curvature="0" />
    </g>
    <g
       id="g384"
       transform="matrix(0.35277777,0,0,-0.35277777,74.824855,98.505799)">
      <path
         d="M 0,0 C 0.073,-0.055 0.012,-0.244 0.032,-0.353 V -0.576 C -0.042,-0.447 0.021,-0.182 0,0"
         style="fill:#97dde3;fill-opacity:1;fill-rule:evenodd;stroke:none"
         id="path386"
         inkscape:connector-curvature="0" />
    </g>
    <g
       id="g394"
       transform="matrix(0.35277777,0,0,-0.35277777,74.836215,98.630153)">
      <path
         d="M 0,0 C 0.073,-0.086 0.011,-0.308 0.031,-0.447 H 0 v 0.223 z"
         style="fill:#60c2e4;fill-opacity:1;fill-rule:evenodd;stroke:none"
         id="path396"
         inkscape:connector-curvature="0" />
    </g>
    <g
       id="g404"
       transform="matrix(0.35277777,0,0,-0.35277777,74.836215,98.78795)">
      <path
         d="M 0,0 H 0.031 C 0.01,-0.597 0.074,-1.28 0,-1.823 Z"
         style="fill:#97dde3;fill-opacity:1;fill-rule:evenodd;stroke:none"
         id="path406"
         inkscape:connector-curvature="0" />
    </g>
    <g
       id="g496"
       transform="matrix(0.35277777,0,0,-0.35277777,75.479611,100.94423)">
      <path
         d="M 0,0 C 0.053,-0.117 0.053,-0.457 0,-0.575 Z"
         style="fill:#97dde3;fill-opacity:1;fill-rule:evenodd;stroke:none"
         id="path498"
         inkscape:connector-curvature="0" />
    </g>
    <g
       id="g1578"
       transform="matrix(0.35277777,0,0,-0.35277777,76.134331,102.80665)">
      <path
         d="M 0,0 C 0.09,0.113 0.144,0.262 0.256,0.353 0.25,0.325 0.224,0.32 0.224,0.288 0.189,0.205 0.108,0.169 0.096,0.064 0.054,0.053 0.045,0.008 0,0"
         style="fill:#60c2e4;fill-opacity:1;fill-rule:evenodd;stroke:none"
         id="path1580"
         inkscape:connector-curvature="0" />
    </g>
    <g
       id="g1606"
       transform="matrix(0.35277777,0,0,-0.35277777,74.824855,99.566884)">
      <path
         d="m 0,0 c 0.096,-0.073 0.228,-0.113 0.352,-0.16 0.235,2.013 0.072,3.96 -0.16,5.792 -0.699,5.503 -2.427,10.141 -4.608,14.112 -2.937,5.344 2.074901,0.568392 -2.911099,3.807392 C -2.116099,20.228392 -6.762,25.31 -3.712,19.84 -1.002,14.979 0.878,9.455 1.216,2.368 1.261,1.411 1.063,0.135 1.344,-0.735 1.452,-1.07 1.694,-1.27 1.824,-1.536 2.378,-2.675 2.457,-4.252 2.272,-5.76 2.222,-6.165 2.018,-6.825 2.048,-7.167 2.077,-7.506 2.421,-7.904 2.592,-8.223 2.79,-8.595 2.953,-8.938 3.168,-9.247 v -0.065 c -0.554,0.94 -1.112,1.875 -1.536,2.944 0.13,0.574 0.207,1.201 0.224,1.889 0.053,0.118 0.053,0.458 0,0.575 C 1.753,-2.098 1.342,-0.6 -0.032,-0.064 -0.037,-0.026 -0.025,-0.007 0,0"
         style="fill:#60c2e4;fill-opacity:1;fill-rule:evenodd;stroke:none"
         id="path1608"
         inkscape:connector-curvature="0"
         sodipodi:nodetypes="ccccccccccccccccccc" />
    </g>
    <g
       id="g1610"
       transform="matrix(0.35277777,0,0,-0.35277777,73.978048,94.487095)">
      <path
         d="M 0,0 C 0.172,-0.244 0.315,-0.794 0.448,-1.184 0.414,-1.176 0.426,-1.12 0.384,-1.12 0.277,-0.726 0.114,-0.388 0,0"
         style="fill:#60c2e4;fill-opacity:1;fill-rule:evenodd;stroke:none"
         id="path1612"
         inkscape:connector-curvature="0" />
    </g>
    <g
       id="g1614"
       transform="matrix(0.35277777,0,0,-0.35277777,73.752411,93.922615)">
      <path
         d="M 0,0 C 0.198,-0.281 0.381,-0.855 0.544,-1.279 H 0.512 C 0.345,-0.849 0.165,-0.433 0,0"
         style="fill:#60c2e4;fill-opacity:1;fill-rule:evenodd;stroke:none"
         id="path1616"
         inkscape:connector-curvature="0" />
    </g>
    <g
       id="g1618"
       transform="matrix(0.35277777,0,0,-0.35277777,73.447505,93.2565)">
      <path
         d="M 0,0 C 0.173,-0.233 0.397,-0.691 0.512,-1.089 0.34,-0.728 0.162,-0.373 0,0"
         style="fill:#60c2e4;fill-opacity:1;fill-rule:evenodd;stroke:none"
         id="path1620"
         inkscape:connector-curvature="0" />
    </g>
    <g
       id="g1622"
       transform="matrix(0.35277777,0,0,-0.35277777,72.138206,91.100746)">
      <path
         d="M 0,0 C 1.315,-1.692 2.464,-3.55 3.456,-5.567 2.478,-3.784 1.488,-2.01 0.288,-0.447 0.232,-0.289 0.103,-0.206 0.032,-0.064 0.025,-0.038 0,-0.031 0,0"
         style="fill:#60c2e4;fill-opacity:1;fill-rule:evenodd;stroke:none"
         id="path1624"
         inkscape:connector-curvature="0" />
    </g>
    <path
       inkscape:connector-curvature="0"
       id="path1632"
       style="fill:#5bcaf2;fill-opacity:1;fill-rule:evenodd;stroke:none;stroke-width:0.35277775"
       d="m 76.100359,91.642471 v 0 c 0.567266,1.607961 0.970844,3.53695 0.970844,5.677958 0,1.027995 -0.13723,2.056695 -0.293511,3.014131 -0.153458,0.94086 -0.352425,1.85173 -0.835378,2.49449 -0.07585,-0.109 -0.13335,-0.23001 -0.2032,-0.36124 -0.05997,-0.11254 -0.181327,-0.25294 -0.191911,-0.37253 -0.01058,-0.12065 0.06138,-0.35349 0.07902,-0.49636 0.06526,-0.53199 0.03739,-1.08832 -0.158044,-1.49013 -0.04551,-0.0942 -0.131233,-0.1644 -0.169333,-0.28258 -0.09913,-0.306917 -0.02893,-0.757061 -0.04516,-1.09467 -0.118886,-2.500136 -0.782461,-4.44888 -1.738489,-6.163733 -1.275497,-1.309405 -1.388315,-1.456232 -0.248355,0.03387 0.769761,1.400527 1.379361,3.037064 1.6256,4.9784 0.0822,0.646288 0.1397,1.333147 0.05644,2.043288 -0.04375,-0.01658 -0.08996,-0.03069 -0.124178,-0.05644 -0.0078,-0.0568 0.01905,-0.07902 0.01164,-0.135819 0.02611,-0.191559 0.0035,-0.432506 0.01093,-0.643114 -0.0071,-0.04939 0.01482,-0.127353 -0.01093,-0.157692 -0.0074,-0.03845 0.01446,-0.105128 -0.01164,-0.124531 v -0.04516 c -0.0074,-0.04516 0.01482,-0.119945 -0.01129,-0.146756 v -0.03387 c -0.0071,-0.03775 0.01447,-0.104775 -0.01129,-0.124178 -0.03316,-0.527751 -0.105833,-1.015289 -0.2032,-1.478839 -0.0032,-0.06033 -0.01164,-0.116417 -0.03351,-0.158045 -0.03175,-0.213078 -0.08431,-0.404989 -0.135819,-0.598311 -0.01164,-0.05574 -0.01799,-0.117122 -0.04516,-0.157692 v -0.01164 c -0.0071,-0.04127 -0.01164,-0.08608 -0.03387,-0.112536 -0.03034,-0.154164 -0.07726,-0.291748 -0.123825,-0.429331 -0.02011,-0.111478 -0.07055,-0.193322 -0.09066,-0.304447 -0.04692,-0.137584 -0.09737,-0.331611 -0.158045,-0.418042 -0.02082,-0.03175 -0.03069,-0.07444 -0.04516,-0.112889 h 0.01129 c -0.05715,-0.149578 -0.121709,-0.352072 -0.191912,-0.451555 -0.04551,-0.08961 -0.08431,-0.186267 -0.124177,-0.28187 -0.04022,-0.140052 -0.119592,-0.301625 -0.180623,-0.384175 -0.02999,-0.06385 -0.06668,-0.121002 -0.09031,-0.191911 -0.349603,-0.7112 -0.754944,-1.366661 -1.218847,-1.963914 -0.304094,-0.414866 0.444974,0.532871 0.101721,0.157868 -0.149577,-0.159103 0.05703,-0.0079 -0.101721,-0.157868"
       sodipodi:nodetypes="ccsccccccccccccccccccccccccccccccccccccccc" />
    <g
       id="g1806"
       transform="matrix(0.35277777,0,0,-0.35277777,76.111613,91.089033)" />
    <g
       id="g2046"
       transform="matrix(0.35277777,0,0,-0.35277777,76.021513,102.97616)">
      <path
         d="M 0,0 C 0.083,0.185 0.256,0.277 0.32,0.48 0.365,0.488 0.374,0.533 0.416,0.545 0.289,0.353 0.16,0.16 0,0"
         style="fill:#97dde3;fill-opacity:1;fill-rule:evenodd;stroke:none"
         id="path2048"
         inkscape:connector-curvature="0" />
    </g>
    <g
       id="g2050"
       transform="matrix(0.35277777,0,0,-0.35277777,76.224607,102.6823)">
      <path
         d="M 0,0 C 0.096,0.117 0.139,0.287 0.256,0.384 0.167,0.228 0.097,0.052 -0.032,-0.064 -0.032,-0.032 -0.006,-0.027 0,0"
         style="fill:#97dde3;fill-opacity:1;fill-rule:evenodd;stroke:none"
         id="path2052"
         inkscape:connector-curvature="0" />
    </g>
    <g
       id="g2054"
       transform="matrix(0.35277777,0,0,-0.35277777,76.326243,102.51314)">
      <path
         d="M 0,0 C 0.131,0.241 0.234,0.512 0.384,0.735 0.271,0.476 0.167,0.207 0,0"
         style="fill:#97dde3;fill-opacity:1;fill-rule:evenodd;stroke:none"
         id="path2056"
         inkscape:connector-curvature="0" />
    </g>
    <g
       id="g2058"
       transform="matrix(0.35277777,0,0,-0.35277777,76.39394,91.879326)">
      <path
         d="M 0,0 C 0.109,-0.178 0.167,-0.409 0.224,-0.64 0.126,-0.45 0.071,-0.217 0,0"
         style="fill:#97dde3;fill-opacity:1;fill-rule:evenodd;stroke:none"
         id="path2060"
         inkscape:connector-curvature="0" />
    </g>
    <g
       id="g2086"
       transform="matrix(0.35277777,0,0,-0.35277777,73.820109,101.24879)" />
    <g
       id="g2110"
       transform="matrix(0.35277777,0,0,-0.35277777,74.11362,94.893459)">
      <path
         d="m 0,0 v 0.032 c 0.042,0 0.029,-0.056 0.064,-0.064 C 0.121,-0.348 0.263,-0.58 0.32,-0.896 0.185,-0.636 0.135,-0.292 0,-0.032 Z"
         style="fill:#97dde3;fill-opacity:1;fill-rule:evenodd;stroke:none"
         id="path2112"
         inkscape:connector-curvature="0" />
    </g>
    <g
       id="g2118"
       transform="matrix(0.35277777,0,0,-0.35277777,74.350652,95.638632)">
      <path
         d="M 0,0 C 0.063,-0.075 0.076,-0.202 0.096,-0.319 0.033,-0.244 0.021,-0.118 0,0"
         style="fill:#97dde3;fill-opacity:1;fill-rule:evenodd;stroke:none"
         id="path2120"
         inkscape:connector-curvature="0" />
    </g>
    <g
       id="g2122"
       transform="matrix(0.35277777,0,0,-0.35277777,74.384554,95.76281)">
      <path
         d="M 0,0 C 0.076,-0.116 0.094,-0.29 0.128,-0.447 0.052,-0.332 0.033,-0.158 0,0"
         style="fill:#97dde3;fill-opacity:1;fill-rule:evenodd;stroke:none"
         id="path2124"
         inkscape:connector-curvature="0" />
    </g>
  </g>
</svg>
